<svg version="1.2" xmlns="http://www.w3.org/2000/svg" viewBox="0 0 60 60" width="60" height="60">
    <defs>
        <linearGradient id="g1" x2="1" gradientUnits="userSpaceOnUse"
            gradientTransform="matrix(18.12 0 0 7.106 5.535 29.108)">
            <stop offset="0" />
            <stop offset="1" stop-opacity=".3" />
        </linearGradient>
        <linearGradient id="g2" x2="1" gradientUnits="userSpaceOnUse"
            gradientTransform="matrix(37.297 0 0 7.977 8.065 14.5)">
            <stop offset="0" />
            <stop offset="1" stop-opacity=".3" />
        </linearGradient>
    </defs>
    <style>
        .s0 {
            fill: #00488e
        }
    </style>
    <g id="Layer 1">
        <path id="Shape 5 copy 2" fill-rule="evenodd" class="s0"
            d="M5.95 33.98s.44-1.25 1.4-1.69c.93-.42 3.12-.26 3.12-.26h13.14l-3.07 16.36s-.52 4.66-4.98 6.3C11.9 56.03 2 55.31 2 55.31" />
        <path id="Shape 3 copy 4" fill-rule="evenodd"
            d="m6.51 30.96-.98 5.25s.59-1.49 1.75-2.01c1.12-.5 7.62-.32 7.62-.32h8.36s.01-.02.35-1.85c1.08-5.88-17.1-1.07-17.1-1.07"
            style="fill:url(#g1)" />
        <path id="Shape 3 copy 3" fill-rule="evenodd"
            d="M10.47 32.03h22.75s3.24.1 6.86-1.79c4.4-2.29 5.06-12.13 5.06-12.13H12.73s-1.27-.06-2.55.46c-.99.41-1.67 1.5-1.67 1.5L5.95 33.98s.44-1.25 1.4-1.69c.93-.42 3.12-.26 3.12-.26"
            style="fill:#f7a800" />
        <path id="Shape 3 copy 2" fill-rule="evenodd"
            d="m9.07 17.04-1.01 5.44s.67-1.67 1.83-2.19c1.12-.51 7.62-.32 7.62-.32h27.4s.23-.93.45-2.8c.69-5.94-36.29-.13-36.29-.13"
            style="fill:url(#g2)" />
        <path id="Shape 5 copy" fill-rule="evenodd" class="s0"
            d="M10.59 8.8s.17-2.51 1.68-3.78c1.52-1.27 3.96-.99 3.96-.99h42.31s-.75 8.32-3.01 11.31c-2.36 3.13-5.79 2.77-5.79 2.77H12.73s-1.27-.06-2.55.46c-.99.41-1.67 1.5-1.67 1.5" />
    </g>
</svg>