<svg version="1.2" xmlns="http://www.w3.org/2000/svg" viewBox="0 0 64 64" width="64" height="64">
    <path fillRule="evenodd" fill="#004cbe"
        d="m12.29 43.47c-4.99 0-8.8 3.36-9.71 7.83l-1.58 7.45c0 0 10.17 0 10.17 0 4.99 0 8.8-3.36 9.71-7.83l1.58-7.45c0 0-10.17 0-10.17 0z" />
    <path fillRule="evenodd" fill="#004cbe"
        d="m20.42 5c-5 0-8.8 3.35-9.72 7.83l-2.83 13.37-0.04 0.18h0.16q0.12-0.32 0.27-0.63c1.57-3.25 4.85-5.48 8.92-5.48h33.96c5 0 8.8-3.35 9.72-7.82l1.58-7.45z" />
    <path fillRule="evenodd" fill="#004cbe"
        d="m16.32 24.24c-4.99 0-8.8 3.35-9.71 7.83l-2.87 13.54h0.15c1.44-3.58 4.87-6.1 9.2-6.1h21.71c4.99 0 8.8-3.35 9.71-7.83l1.58-7.44z" />
</svg>