<svg version="1.2" xmlns="http://www.w3.org/2000/svg" viewBox="0 0 32 32" width="32" height="32">
	<g>
		<rect width="32" height="32" x="0" y="0" rx="5" ry="5" fill="#fff" />
		<path fill="#233266"
			d="m11.73 14.58v5.14c0 0.42-0.36 0.75-0.8 0.75h-2.46c-1.17 0-1.89-0.78-1.89-1.87v-1.58c0-1.1 0.84-1.89 2.02-1.89h0.89c0.13-0.01 0.24-0.12 0.26-0.27v-0.18c-0.02-0.16-0.13-0.26-0.27-0.29h-1.79c-0.18 0-0.32-0.13-0.32-0.29v-0.73q0 0 0-0.01 0 0 0-0.01v-0.53c0-0.15 0.13-0.28 0.3-0.28h1.88c1.54 0 2.18 0.79 2.18 2.04zm-1.96 2.68c0-0.17-0.15-0.3-0.32-0.3h-0.57c-0.17 0-0.32 0.13-0.32 0.29v0.01 0.21 0.68q0 0.01 0 0.01v0.26c0 0.16 0.15 0.29 0.32 0.29h0.57c0.14 0 0.26-0.08 0.3-0.2q0.01-0.02 0.01-0.04 0.01-0.03 0.01-0.05zm-3.67-2.88v1.91c0 1.09-0.76 1.85-1.84 1.85h-1.3v2.06c0 0.16-0.14 0.3-0.3 0.3h-1.39c-0.15-0.01-0.27-0.14-0.27-0.3v-6.02q0-0.01 0-0.02 0 0 0 0v-1.33c0-0.16 0.13-0.3 0.29-0.3h2.97c1.08 0 1.84 0.76 1.84 1.85zm-1.96 0.44c0-0.18-0.14-0.32-0.32-0.32h-0.86v1.67h0.86c0.18 0 0.32-0.14 0.32-0.31zm13.43-1.99v5.68c0 1.17-0.83 2-2 2h-2.22c-0.17 0-0.3-0.14-0.3-0.3v-1.36c0-0.16 0.13-0.3 0.3-0.3l1.98-0.01q0.02 0 0.03 0c0.15-0.02 0.27-0.15 0.27-0.31 0-0.17-0.12-0.3-0.28-0.32-0.02 0-0.9 0-0.9 0-1.17 0-2-0.83-2-2v-3.08c0-0.16 0.13-0.3 0.3-0.3h1.35c0.17 0 0.3 0.14 0.3 0.3l0.01 2.8c0 0.18 0.14 0.32 0.32 0.32h0.57c0.17 0 0.31-0.14 0.31-0.31v-2.81c0-0.16 0.14-0.3 0.3-0.3h1.36c0.16 0 0.3 0.14 0.3 0.3z" />
		<path fill="#54c1f0"
			d="m22.45 12.83v1.36c0 0.17-0.14 0.3-0.3 0.3h-0.76v5.75c0 0.17-0.13 0.3-0.3 0.3h-1.34c-0.16 0-0.3-0.13-0.3-0.3l0.01-5.75h-0.82c-0.17 0-0.3-0.13-0.3-0.3v-1.36c0-0.14 0.1-0.26 0.23-0.29q0.03-0.01 0.07-0.01h0.15c1.57-0.1 1.4-1.29 2.26-1.52q0.02-0.01 0.05-0.01c0.15 0 0.27 0.12 0.27 0.27 0 0 0 1.26 0 1.26h0.78c0.16 0 0.3 0.14 0.3 0.3zm8.98 1.7v5.65c0 0.17-0.13 0.3-0.3 0.3h-1.35c-0.17 0-0.3-0.13-0.3-0.3l-0.01-5.25c0-0.26-0.17-0.48-0.47-0.51h-0.25q-0.14 0.02-0.25 0.08-0.21 0.16-0.22 0.43v5.28c-0.01 0.16-0.14 0.29-0.3 0.29h-1.35c-0.17 0-0.3-0.14-0.3-0.3l-0.01-5.26q0-0.25-0.18-0.4-0.11-0.09-0.29-0.11h-0.25c-0.27 0.02-0.44 0.22-0.46 0.45q-0.01 0.03-0.01 0.06v5.28c-0.02 0.15-0.14 0.26-0.29 0.26h-1.36c-0.16 0-0.3-0.13-0.3-0.3v-7.36c0-0.17 0.14-0.3 0.3-0.3h1.36c0.16 0 0.28 0.12 0.3 0.27v0.16c0.35-0.31 0.81-0.49 1.32-0.49h0.02c0.57 0 1.09 0.24 1.46 0.62 0.37-0.38 0.88-0.62 1.46-0.62h0.02c0.88 0 1.63 0.56 1.91 1.35 0.06 0.17 0.1 0.34 0.1 0.72z" />

	</g>
</svg>