<svg version="1.2" xmlns="http://www.w3.org/2000/svg" viewBox="0 0 24 24" width="24" height="24">
    <g>
        <path fill="currentColor"
            d="m13.29 2.64q0.2 0.34 0.33 0.73 0.13 0.38 0.18 0.78 0.06 0.39 0.03 0.8-0.03 0.4-0.14 0.79-0.05 0.12-0.12 0.23-0.07 0.11-0.16 0.2-0.1 0.09-0.21 0.16-0.11 0.06-0.24 0.1c0 0-0.35 0.07-0.35 0.39l0.25 4.19h-0.97l0.25-4.19c-0.01-0.32-0.27-0.36-0.35-0.39q-0.13-0.04-0.24-0.1-0.11-0.07-0.21-0.16-0.09-0.09-0.16-0.2-0.07-0.11-0.12-0.23-0.11-0.39-0.14-0.79-0.03-0.41 0.03-0.8 0.05-0.4 0.18-0.78 0.13-0.39 0.33-0.73 0.06-0.13 0.16-0.24 0.09-0.11 0.21-0.2 0.12-0.08 0.25-0.13 0.14-0.05 0.29-0.07 0.14 0.02 0.28 0.07 0.13 0.05 0.25 0.13 0.12 0.09 0.21 0.2 0.1 0.11 0.16 0.24m6.61 3.47q-0.1 0.39-0.28 0.75-0.18 0.37-0.43 0.68-0.25 0.32-0.56 0.58-0.3 0.27-0.66 0.46-0.11 0.06-0.23 0.08-0.12 0.03-0.25 0.03-0.12 0-0.25-0.03-0.12-0.02-0.23-0.08-0.06-0.04-0.13-0.06-0.07-0.03-0.14-0.03-0.07 0-0.14 0.03-0.07 0.02-0.12 0.06l-2.79 3.14-0.66-0.66 3.13-2.79q0.04-0.05 0.07-0.12 0.02-0.07 0.02-0.14 0-0.07-0.02-0.14-0.03-0.07-0.07-0.13-0.06-0.11-0.08-0.23-0.03-0.12-0.03-0.25 0-0.13 0.03-0.25 0.02-0.12 0.08-0.23 0.19-0.36 0.46-0.66 0.26-0.31 0.58-0.56 0.32-0.25 0.68-0.43 0.36-0.18 0.75-0.28 0.14-0.05 0.28-0.06 0.15-0.01 0.29 0.01 0.14 0.03 0.27 0.09 0.14 0.06 0.25 0.15 0.09 0.11 0.15 0.25 0.06 0.13 0.09 0.27 0.02 0.14 0.01 0.29-0.01 0.14-0.06 0.28zm1.5 7.49q-0.38 0.13-0.78 0.18-0.4 0.06-0.8 0.03-0.4-0.03-0.79-0.14-0.12-0.05-0.23-0.12-0.11-0.07-0.2-0.16-0.09-0.1-0.16-0.21-0.06-0.11-0.1-0.24c0 0-0.07-0.35-0.39-0.35l-4.19 0.25v-0.94l4.19 0.24c0.32-0.01 0.36-0.27 0.39-0.35q0.04-0.13 0.1-0.24 0.07-0.11 0.16-0.21 0.09-0.09 0.2-0.16 0.11-0.08 0.23-0.12 0.39-0.11 0.79-0.14 0.4-0.03 0.8 0.03 0.4 0.05 0.78 0.18 0.38 0.12 0.73 0.33 0.13 0.06 0.24 0.16 0.11 0.09 0.2 0.21 0.08 0.12 0.13 0.25 0.05 0.14 0.07 0.28-0.02 0.15-0.07 0.28-0.05 0.14-0.13 0.26-0.09 0.12-0.2 0.21-0.11 0.1-0.24 0.16-0.35 0.2-0.73 0.33zm-3.51 6.01q-0.36-0.18-0.68-0.43-0.32-0.25-0.58-0.56-0.27-0.3-0.46-0.66-0.06-0.11-0.08-0.23-0.03-0.12-0.03-0.25 0-0.13 0.03-0.25 0.02-0.12 0.08-0.23 0.04-0.06 0.06-0.13 0.03-0.06 0.03-0.13 0-0.07-0.03-0.14-0.02-0.07-0.06-0.12l-3.14-2.79 0.35-0.36 0.33-0.33 2.79 3.14q0.05 0.04 0.12 0.06 0.07 0.03 0.14 0.03 0.07 0 0.14-0.03 0.07-0.02 0.13-0.06 0.11-0.06 0.23-0.08 0.12-0.03 0.25-0.03 0.13 0 0.25 0.03 0.12 0.02 0.23 0.08 0.36 0.19 0.66 0.46 0.31 0.26 0.56 0.58 0.25 0.32 0.43 0.68 0.18 0.36 0.28 0.75 0.05 0.14 0.06 0.28 0.01 0.15-0.02 0.29-0.02 0.14-0.08 0.27-0.06 0.14-0.15 0.25-0.11 0.09-0.25 0.15-0.13 0.06-0.27 0.08-0.14 0.03-0.29 0.02-0.14-0.01-0.28-0.06-0.39-0.1-0.75-0.28zm-6.42 2.5q-0.2-0.35-0.33-0.73-0.13-0.38-0.18-0.78-0.06-0.4-0.03-0.8 0.03-0.4 0.14-0.79 0.05-0.12 0.12-0.23 0.07-0.11 0.16-0.2 0.1-0.09 0.21-0.16 0.11-0.06 0.24-0.1c0 0 0.35-0.07 0.35-0.39l-0.25-4.19h0.97l-0.25 4.19c0.01 0.32 0.27 0.36 0.35 0.39q0.13 0.04 0.24 0.1 0.12 0.07 0.21 0.16 0.09 0.09 0.16 0.2 0.07 0.11 0.12 0.23 0.11 0.39 0.14 0.79 0.03 0.4-0.03 0.8-0.05 0.4-0.18 0.78-0.13 0.38-0.33 0.73-0.06 0.13-0.16 0.24-0.09 0.11-0.21 0.2-0.12 0.08-0.26 0.13-0.13 0.05-0.28 0.07-0.14-0.02-0.28-0.07-0.13-0.05-0.25-0.13-0.12-0.09-0.21-0.2-0.1-0.11-0.16-0.24zm-6.58-3.49q0.1-0.39 0.28-0.75 0.18-0.37 0.43-0.68 0.25-0.32 0.55-0.58 0.31-0.27 0.67-0.46 0.11-0.06 0.23-0.08 0.12-0.03 0.25-0.03 0.12 0 0.25 0.03 0.12 0.02 0.23 0.08 0.06 0.04 0.13 0.07 0.06 0.02 0.14 0.02 0.07 0 0.14-0.02 0.06-0.03 0.12-0.07l2.79-3.14 0.68 0.68-3.16 2.79q-0.04 0.05-0.07 0.12-0.02 0.07-0.02 0.14 0 0.07 0.02 0.14 0.03 0.07 0.07 0.13 0.05 0.11 0.08 0.23 0.03 0.12 0.03 0.25 0 0.12-0.03 0.25-0.03 0.12-0.08 0.23-0.2 0.36-0.46 0.66-0.26 0.31-0.58 0.56-0.32 0.25-0.68 0.43-0.36 0.18-0.75 0.28-0.14 0.05-0.28 0.06-0.15 0.01-0.29-0.02-0.14-0.02-0.28-0.08-0.13-0.06-0.24-0.15-0.09-0.11-0.15-0.25-0.06-0.13-0.09-0.27-0.02-0.14-0.01-0.29 0.01-0.14 0.06-0.28zm-1.5-7.48q0.38-0.13 0.78-0.19 0.39-0.05 0.8-0.02 0.4 0.03 0.78 0.14 0.13 0.04 0.24 0.12 0.11 0.07 0.2 0.16 0.09 0.09 0.16 0.21 0.06 0.11 0.1 0.24c0 0 0.07 0.35 0.39 0.35l4.19-0.25v0.95l-4.19-0.25c-0.32 0.01-0.37 0.27-0.39 0.35q-0.04 0.13-0.1 0.24-0.07 0.11-0.16 0.21-0.09 0.09-0.2 0.16-0.11 0.07-0.24 0.12-0.38 0.11-0.78 0.14-0.41 0.02-0.8-0.03-0.4-0.05-0.78-0.18-0.39-0.13-0.73-0.33-0.13-0.06-0.24-0.16-0.11-0.09-0.2-0.21-0.08-0.12-0.13-0.26-0.05-0.13-0.07-0.28 0.02-0.14 0.07-0.28 0.05-0.13 0.13-0.25 0.09-0.12 0.2-0.21 0.11-0.1 0.24-0.16 0.34-0.21 0.73-0.33zm2.76-6.26q0.39 0.11 0.75 0.29 0.36 0.18 0.68 0.43 0.32 0.25 0.58 0.55 0.27 0.31 0.46 0.67 0.06 0.11 0.08 0.23 0.03 0.12 0.03 0.25 0 0.12-0.03 0.25-0.02 0.12-0.08 0.23-0.04 0.06-0.07 0.13-0.02 0.06-0.02 0.14 0 0.07 0.02 0.14 0.03 0.06 0.07 0.12l3.14 2.79-0.66 0.66-2.81-3.16q-0.05-0.04-0.12-0.06-0.07-0.03-0.14-0.03-0.07 0-0.14 0.03-0.07 0.02-0.13 0.06-0.11 0.06-0.23 0.08-0.13 0.03-0.25 0.03-0.13 0-0.25-0.03-0.12-0.02-0.23-0.08-0.36-0.2-0.66-0.46-0.31-0.26-0.56-0.58-0.25-0.32-0.43-0.68-0.18-0.36-0.28-0.75-0.05-0.14-0.06-0.28-0.01-0.15 0.01-0.29 0.03-0.14 0.09-0.27 0.06-0.14 0.15-0.25 0.11-0.09 0.25-0.15 0.13-0.06 0.27-0.09 0.14-0.02 0.29-0.01 0.14 0.01 0.28 0.06z" />
    </g>
</svg>