<svg fill="none" height="20" viewBox="0 0 20 20" width="20" xmlns="http://www.w3.org/2000/svg">
    <g fill="currentColor">
        <path d="m15 5-11.70755.00054.3976-2.00484 11.30995.0043v-1.21445l3 2.21445-3 2.5z" />
        <path d="m1.77002 14.561 1.21827-7.54843 7.51171-.01257-.4626 2.97556h-4.55156l-.75672 4.58544z" />
        <path clip-rule="evenodd"
            d="m14.9959 13.5353c-.0926 1.0137-.1974 2.1593-1.4192 2.1593h-5.98298v-1.6903l-2.59375 2.9957 2.59375 2.5v-1.5h5.68038c2.5371 0 3.2259-.5 3.7884-3.9957l1.0909-6.54975h-2.2074l-.1832 1.12926h-.0554c-.054-.21022-.1463-.40767-.277-.59233-.1279-.18466-.3054-.3338-.5327-.44744-.2244-.11648-.5043-.17472-.8395-.17472-.4432 0-.8821.1179-1.3168.3537-.4318.23295-.8125.59801-1.142 1.09517-.3267.49432-.554 1.12926-.6818 1.90481-.125.7472-.108 1.3566.0511 1.8281.1591.4688.4162.814.7713 1.0356.358.2187.7728.3281 1.2443.3281.3097 0 .5952-.0426.8566-.1279.2642-.088.4943-.2102.6903-.3664.1989-.1591.3566-.3438.473-.554h.0682c-.034.2051-.0549.4334-.0765.6688zm-.9633-1.21c.2358 0 .4489-.0639.6392-.1918.1904-.1278.3509-.3111.4816-.5497.1335-.2386.2273-.5256.2812-.8608.054-.3409.0554-.6335.0043-.87782s-.1506-.43182-.2983-.5625c-.1449-.13353-.3352-.20029-.571-.20029-.2387 0-.4517.06676-.6392.20029-.1875.13068-.3452.3196-.473.56676-.125.24436-.2145.53546-.2685.87356s-.0582.6264-.0128.8651c.0483.2386.1435.4218.2855.5497.1421.125.3324.1875.571.1875z"
            fill-rule="evenodd" />
    </g>
</svg>