<svg fill="none" height="20" viewBox="0 0 20 20" width="20" xmlns="http://www.w3.org/2000/svg">
    <g fill="currentColor">
        <path clip-rule="evenodd"
            d="m6 3.25c-2.07107 0-3.75 1.67893-3.75 3.75s1.67893 3.75 3.75 3.75c1.81422 0 3.32753-1.28832 3.67499-3h.65001c.3475 1.71168 1.8608 3 3.675 3 2.0711 0 3.75-1.67893 3.75-3.75s-1.6789-3.75-3.75-3.75c-1.8142 0-3.3275 1.28832-3.675 3h-.65001c-.34746-1.71168-1.86077-3-3.67499-3zm-2.25 3.75c0-1.24264 1.00736-2.25 2.25-2.25s2.25 1.00736 2.25 2.25-1.00736 2.25-2.25 2.25-2.25-1.00736-2.25-2.25zm8 0c0-1.24264 1.0074-2.25 2.25-2.25s2.25 1.00736 2.25 2.25-1.0074 2.25-2.25 2.25-2.25-1.00736-2.25-2.25z"
            fill-rule="evenodd" />
        <path
            d="m10.5728 12.2549c-.1415.1306-.2843.2625-.5728.2625-.28848 0-.43132-.1319-.57278-.2625-.13876-.128-.27618-.2549-.54841-.2549-2.15212.8204-4.94914 2.5985-6.87881 5.9811 2.22872.1332 6.08731-.396 8-2.9123 1.9127 2.5163 5.7713 3.0455 8 2.9123-1.9297-3.3826-4.7267-5.1607-6.8788-5.9811-.2722 0-.4097.1269-.5484.2549z" />
    </g>
</svg>