<svg fill="none" height="20" viewBox="0 0 20 20" width="20" xmlns="http://www.w3.org/2000/svg">
    <g fill="currentColor">
        <path
            d="m13.2926 4.24514h-6.58518c.49143-1.28789 1.75232-2.24514 3.29258-2.24514 1.5403 0 2.8011.95725 3.2926 2.24514z" />
        <path
            d="m2.61646 10.9999c-.318-.001-.53684-.3086-.43646-.6104.83901-2.52201 2.28503-4.01789 3.82404-4.90069.14251-.08174.30471-.12109.469-.12109h7.05396c.1642 0 .3264.03935.469.12109 1.539.8828 2.985 2.37868 3.824 4.90069.1004.3018-.1185.6094-.4365.6104-2.269.0074-5.6372-.651-7.3835-3.01106-1.74626 2.36006-5.11451 3.01846-7.38354 3.01106z" />
        <path clip-rule="evenodd"
            d="m6 11.25c-2.07107 0-3.75 1.6789-3.75 3.75s1.67893 3.75 3.75 3.75c1.81422 0 3.32753-1.2883 3.67498-3h.65002c.3475 1.7117 1.8608 3 3.675 3 2.0711 0 3.75-1.6789 3.75-3.75s-1.6789-3.75-3.75-3.75c-1.8142 0-3.3275 1.2883-3.675 3h-.65002c-.34745-1.7117-1.86076-3-3.67498-3zm-2.25 3.75c0-1.2426 1.00736-2.25 2.25-2.25s2.25 1.0074 2.25 2.25-1.00736 2.25-2.25 2.25-2.25-1.0074-2.25-2.25zm8 0c0-1.2426 1.0074-2.25 2.25-2.25s2.25 1.0074 2.25 2.25-1.0074 2.25-2.25 2.25-2.25-1.0074-2.25-2.25z"
            fill-rule="evenodd" />
    </g>
</svg>