<svg fill="none" height="20" viewBox="0 0 20 20" width="20" xmlns="http://www.w3.org/2000/svg">
    <g fill="currentColor">
        <path
            d="m5.15127 9.62586h.78169c.22157 0 .40415-.03629.54772-.10888.14535-.07428.25348-.17641.32438-.3064.07267-.13167.10901-.28276.10901-.45325 0-.17219-.03634-.32243-.10901-.45073-.0709-.12999-.17903-.23043-.32438-.30133-.14535-.07259-.32969-.10888-.55303-.10888h-.77638z" />
        <path
            d="m10.4799 9.62586h-.78171l-.00001-1.72947h.77642c.2233 0 .4076.03629.553.10888.1453.0709.2535.17134.3244.30133.0726.1283.109.27854.109.45073 0 .17049-.0364.32158-.109.45325-.0709.12999-.1791.23212-.3244.3064-.1436.07259-.3262.10888-.5477.10888z" />
        <path clip-rule="evenodd"
            d="m6.25 3.00317v-.75317c0-.9665.7835-1.75 1.75-1.75h4c.9665 0 1.75.7835 1.75 1.75v.75317c1.5144.01336 2.393.08311 3.0939.44718.7306.3795 1.3263.97518 1.7058 1.70575.4503.86696.4503 2.00594.4503 4.2839v3.12c0 2.278 0 3.4169-.4503 4.2839-.3795.7306-.9752 1.3263-1.7058 1.7058-.867.4503-2.0059.4503-4.2839.4503h-5.12c-2.27796 0-3.41694 0-4.2839-.4503-.73057-.3795-1.32625-.9752-1.70575-1.7058-.45035-.867-.45035-2.0059-.45035-4.2839v-3.12c0-2.27796 0-3.41694.45035-4.2839.3795-.73057.97518-1.32625 1.70575-1.70575.70085-.36407 1.57948-.43382 3.0939-.44718zm1.5-.75317c0-.13807.11193-.25.25-.25h4c.1381 0 .25.11193.25.25v.75h-4.5zm-3.74998 12.75-.00002-8h2.14833c.413 0 .76486.07512 1.05555.22536.2907.14856.51227.35535.66471.62038.15421.26335.23132.56721.23132.91159 0 .34437-.078.64823-.23398.91158-.15598.26334-.38198.46849-.678.61529-.29424.1469-.65053.2203-1.06885.2203h-.9678l.00001 4.4955zm4.54689-8 .00002 8h1.15127l-.00001-4.4955h.96781c.4183 0 .7746-.0734 1.0688-.2203.2961-.1468.5221-.35195.678-.61529.156-.26335.234-.56721.234-.91158 0-.34438-.0771-.64824-.2313-.91159-.1524-.26503-.374-.47182-.6647-.62038-.2907-.15024-.6426-.22536-1.0556-.22536zm4.84769 8v-7.90001h3.6054v.90399h-2.4541v1.2357h2.2148v.90402h-2.2148v4.8563z"
            fill-rule="evenodd" />
    </g>
</svg>