<svg fill="none" height="20" viewBox="0 0 20 20" width="20" xmlns="http://www.w3.org/2000/svg">
    <g fill="currentColor">
        <path d="m9 15c0-.5523.44772-1 1-1 .5523 0 1 .4477 1 1v4c0 .5523-.4477 1-1 1-.55228 0-1-.4477-1-1z" />
        <path d="m10 4c1.1046 0 2-.89543 2-2s-.8954-2-2-2c-1.10457 0-2 .89543-2 2s.89543 2 2 2z" />
        <path
            d="m7.26322 5.00002-4.01314-2.31699c-.23914-.13807-.32108-.44386-.18301-.68301.13807-.23914.44387-.32108.68301-.18301l4.54663 2.625c.57834.3339 1.22764.52338 1.89289.55369.6653-.03031 1.3146-.21979 1.8929-.55369l4.5467-2.625c.2391-.13807.5449-.05613.683.18301.138.23915.0561.54494-.183.68301l-4.0132 2.31699h3.384c.2761 0 .5.22386.5.5s-.2239.5-.5.5h-3.4935c.5493.00348.9935.44985.9935.99998v7c0 1.3062-.8348 2.4175-2 2.8293v-1.8293c0-1.1046-.8954-2-2-2-1.10457 0-2 .8954-2 2v1.8293c-1.16519-.4118-2-1.5231-2-2.8293v-7c0-.55013.44422-.9965.99353-.99998h-3.11428c-.27614 0-.5-.22386-.5-.5s.22386-.5.5-.5z" />
    </g>
</svg>