<svg fill="none" height="20" viewBox="0 0 20 20" width="20" xmlns="http://www.w3.org/2000/svg">
    <g fill="currentColor">
        <path clip-rule="evenodd"
            d="m4.83313 15.0391c-2.95272-2.9527-2.95272-7.74 0-10.69272 2.95273-2.95272 7.74007-2.95272 10.69277 0zm2.22762-2.2276c-1.72242-1.7224-1.72242-4.51504 0-6.23746 1.72243-1.72242 4.51505-1.72242 6.23745 0l.8911-.89106c-2.2146-2.21454-5.80507-2.21454-8.01961 0s-2.21454 5.80502 0 8.01952z"
            fill-rule="evenodd" />
        <path d="m12.1101 7.76217c1.7224 1.72242 1.7224 4.51503 0 6.23743s-4.51501 1.7224-6.23744 0z" />
        <path
            d="m13.0012 6.87111c2.2145 2.21454 2.2145 5.80499 0 8.01959-2.2146 2.2145-5.80505 2.2145-8.0196 0l-1.33658 1.3366c2.95272 2.9527 7.74008 2.9527 10.69278 0 2.9527-2.9528 2.9527-7.74008 0-10.6928z" />
    </g>
</svg>