<svg xmlns="http://www.w3.org/2000/svg" width="58.14" height="47.12" viewBox="0 0 58.14 47.12" fill="none">
	<style>
		:root { color: #000; }
		@media (prefers-color-scheme: dark) {
			:root { color: #fff; }
		}
	</style>
	<g transform="translate(-2.86 -1)">
		<path fill="currentColor" d="M9.73 35.44L9.65 35.44L9.65 48.12L2.86 48.12L2.86 16L9.65 16L9.65 19.31L9.73 19.31Q12.25 15.46 16.80 15.46Q21.08 15.46 23.41 18.40Q25.74 21.33 25.74 26.38Q25.74 31.88 23.02 35.21Q20.30 38.54 15.79 38.54Q11.82 38.54 9.73 35.44M9.54 26.42L9.54 28.18Q9.54 30.46 10.74 31.90Q11.95 33.34 13.90 33.34Q16.22 33.34 17.50 31.54Q18.78 29.75 18.78 26.46Q18.78 20.66 14.27 20.66Q12.18 20.66 10.86 22.24Q9.54 23.82 9.54 26.42 M46.45 24.85L46.45 38L40.02 38L40.02 34.84L39.94 34.84Q37.72 38.54 33.38 38.54Q30.18 38.54 28.35 36.72Q26.51 34.91 26.51 31.88Q26.51 25.47 34.09 24.49L40.07 23.69Q40.07 20.08 36.16 20.08Q32.22 20.08 28.68 22.42L28.68 17.31Q30.10 16.58 32.56 16.02Q35.02 15.46 37.04 15.46Q46.45 15.46 46.45 24.85M40.07 29.06L40.07 27.58L36.07 28.10Q32.76 28.53 32.76 31.08Q32.76 32.24 33.57 32.98Q34.37 33.72 35.75 33.72Q37.66 33.72 38.86 32.40Q40.07 31.08 40.07 29.06" />
		<rect x="49" y="20" width="8" height="18" rx="3" fill="currentColor" />
		<circle cx="53" cy="9" r="8" fill="#3a81f6" />
	</g>
</svg>
